<?xml version="1.0" encoding="UTF-8"?>
<svg xmlns="http://www.w3.org/2000/svg" xmlns:xlink="http://www.w3.org/1999/xlink" width="256pt" height="256pt" viewBox="0 0 256 256" version="1.1">
<g id="surface1">
<path style=" stroke:none;fill-rule:nonzero;fill:rgb(10.196078%,32.156863%,46.27451%);fill-opacity:1;" d="M 128.128906 -0.164062 C 93.707031 -0.164062 62.078125 12.957031 37.683594 37.359375 C 13.289062 61.765625 0.171875 93.40625 0.171875 127.84375 C 0.171875 162.28125 13.289062 193.921875 37.683594 218.324219 C 58.167969 238.816406 83.773438 251.355469 112.746094 255.085938 C 124.125 256.554688 141.566406 255.808594 154 253.332031 C 198.761719 244.410156 237.003906 209.726562 250.40625 165.894531 C 264.46875 119.910156 252.410156 71.207031 218.578125 37.359375 C 194.183594 12.957031 162.554688 -0.164062 128.128906 -0.164062 Z M 126.964844 9.875 C 145.484375 9.707031 163.988281 13.902344 180.855469 22.355469 C 203.96875 33.941406 221.996094 51.972656 233.578125 75.097656 C 250.222656 108.339844 250.222656 147.347656 233.578125 180.585938 C 227.769531 192.1875 221.980469 200.339844 212.765625 209.917969 C 193.261719 230.1875 167.4375 242.542969 138.71875 245.351562 C 117.296875 247.445312 95.191406 243.246094 75.40625 233.332031 C 63.8125 227.519531 55.660156 221.730469 46.085938 212.511719 C 9.15625 176.945312 -0.355469 121.101562 22.683594 75.097656 C 36.53125 47.445312 60.320312 26.527344 89.457031 16.382812 C 101.617188 12.148438 114.296875 9.988281 126.964844 9.875 Z M 126.964844 9.875 "/>
<path style=" stroke:none;fill-rule:nonzero;fill:rgb(10.196078%,32.156863%,46.27451%);fill-opacity:1;" d="M 108.113281 87.339844 L 85.582031 87.339844 L 85.582031 107.253906 C 92.625 107.457031 100.269531 107.859375 108.113281 108.058594 Z M 108.113281 87.339844 "/>
<path style=" stroke:none;fill-rule:nonzero;fill:rgb(10.196078%,32.156863%,46.27451%);fill-opacity:1;" d="M 136.480469 109.066406 L 136.480469 87.339844 L 113.949219 87.339844 L 113.949219 108.261719 C 120.988281 108.664062 128.230469 108.863281 135.675781 109.265625 L 136.480469 109.265625 Z M 136.480469 109.066406 "/>
<path style=" stroke:none;fill-rule:nonzero;fill:rgb(10.196078%,32.156863%,46.27451%);fill-opacity:1;" d="M 142.113281 87.339844 L 164.644531 87.339844 L 164.644531 109.265625 L 142.113281 109.265625 Z M 142.113281 87.339844 "/>
<path style=" stroke:none;fill-rule:nonzero;fill:rgb(10.196078%,32.156863%,46.27451%);fill-opacity:1;" d="M 85.582031 60.378906 L 108.113281 60.378906 L 108.113281 82.308594 L 85.582031 82.308594 Z M 85.582031 60.378906 "/>
<path style=" stroke:none;fill-rule:nonzero;fill:rgb(10.196078%,32.156863%,46.27451%);fill-opacity:1;" d="M 114.148438 60.378906 L 136.679688 60.378906 L 136.679688 82.308594 L 114.148438 82.308594 Z M 114.148438 60.378906 "/>
<path style=" stroke:none;fill-rule:nonzero;fill:rgb(10.196078%,32.156863%,46.27451%);fill-opacity:1;" d="M 216.75 60.378906 C 216.546875 63.800781 215.140625 66.011719 211.921875 68.425781 C 209.304688 70.4375 202.867188 72.25 202.265625 78.484375 C 197.839844 77.277344 193.613281 80.699219 190.796875 81.90625 C 187.78125 83.113281 183.152344 83.71875 180.738281 83.515625 C 182.347656 88.34375 184.160156 91.964844 189.390625 93.777344 C 193.816406 95.386719 199.449219 92.769531 205.683594 90.355469 C 206.890625 92.167969 208.5 101.621094 206.890625 106.851562 C 204.277344 114.898438 184.761719 115.703125 148.347656 114.496094 C 93.828125 112.886719 42.128906 107.253906 40.71875 119.726562 C 39.914062 125.964844 39.511719 138.839844 47.960938 154.53125 C 58.824219 174.648438 83.570312 189.738281 114.953125 190.339844 C 124.609375 190.542969 134.066406 189.738281 142.917969 187.925781 C 149.554688 191.347656 155.589844 194.164062 162.027344 195.773438 C 172.691406 198.589844 182.144531 197.785156 186.171875 195.976562 C 190.195312 194.164062 186.171875 192.757812 182.347656 192.152344 C 178.726562 191.550781 169.675781 184.910156 160.21875 183.300781 C 171.015625 179.5 184.550781 172.003906 192.8125 165.792969 C 192.832031 165.78125 192.984375 165.683594 192.980469 165.6875 C 206.457031 154.621094 215.34375 140.652344 217.554688 125.964844 C 220.171875 109.46875 212.726562 92.769531 210.3125 87.941406 C 217.152344 83.714844 220.773438 80.097656 221.980469 75.265625 C 223.386719 69.433594 219.769531 62.59375 216.75 60.378906 Z M 103.082031 152.519531 C 105.699219 152.519531 107.710938 154.53125 107.710938 157.148438 C 107.710938 159.761719 105.699219 161.773438 103.082031 161.773438 C 100.46875 161.773438 98.457031 159.761719 98.457031 157.148438 C 98.253906 154.734375 100.46875 152.519531 103.082031 152.519531 Z M 91.816406 161.371094 C 99.058594 171.027344 117.164062 185.109375 137.484375 186.117188 C 113.542969 189.535156 94.03125 185.714844 86.988281 182.695312 C 78.742188 179.074219 67.878906 173.441406 58.625 162.980469 C 61.441406 163.382812 64.457031 163.785156 67.476562 163.785156 C 75.925781 172.4375 88.398438 180.683594 102.277344 183.300781 C 91.214844 179.074219 82.160156 174.449219 73.511719 163.785156 C 75.523438 163.785156 77.332031 163.585938 79.34375 163.382812 C 89.605469 173.242188 104.492188 181.890625 114.953125 184.105469 C 105.296875 179.679688 92.824219 171.832031 84.777344 162.78125 C 87.191406 162.378906 89.402344 161.976562 91.816406 161.371094 Z M 91.816406 161.371094 "/>
</g>
</svg>
